<svg height="420px" viewBox="0 0 560 420" width="560px" xmlns="http://www.w3.org/2000/svg" xmlns:xlink="http://www.w3.org/1999/xlink">

<title>Gnuplot</title>
<desc>Produced by GNUPLOT 5.0 patchlevel 3 </desc>

<g id="gnuplot_canvas">

<rect fill="#ffffff" height="420" width="560" x="0" y="0"/>
<defs>

	<circle id="gpDot" r="0.5" stroke-width="0.5"/>
	<path d="M-1,0 h2 M0,-1 v2" id="gpPt0" stroke="currentColor" stroke-width="0.333"/>
	<path d="M-1,-1 L1,1 M1,-1 L-1,1" id="gpPt1" stroke="currentColor" stroke-width="0.333"/>
	<path d="M-1,0 L1,0 M0,-1 L0,1 M-1,-1 L1,1 M-1,1 L1,-1" id="gpPt2" stroke="currentColor" stroke-width="0.333"/>
	<rect height="2" id="gpPt3" stroke="currentColor" stroke-width="0.333" width="2" x="-1" y="-1"/>
	<rect fill="currentColor" height="2" id="gpPt4" stroke="currentColor" stroke-width="0.333" width="2" x="-1" y="-1"/>
	<circle cx="0" cy="0" id="gpPt5" r="1" stroke="currentColor" stroke-width="0.333"/>
	<use fill="currentColor" id="gpPt6" stroke="none" xlink:href="#gpPt5"/>
	<path d="M0,-1.33 L-1.33,0.67 L1.33,0.67 z" id="gpPt7" stroke="currentColor" stroke-width="0.333"/>
	<use fill="currentColor" id="gpPt8" stroke="none" xlink:href="#gpPt7"/>
	<use id="gpPt9" stroke="currentColor" transform="rotate(180)" xlink:href="#gpPt7"/>
	<use fill="currentColor" id="gpPt10" stroke="none" xlink:href="#gpPt9"/>
	<use id="gpPt11" stroke="currentColor" transform="rotate(45)" xlink:href="#gpPt3"/>
	<use fill="currentColor" id="gpPt12" stroke="none" xlink:href="#gpPt11"/>
	<path d="M0,1.330 L1.265,0.411 L0.782,-1.067 L-0.782,-1.076 L-1.265,0.411 z" id="gpPt13" stroke="currentColor" stroke-width="0.333"/>
	<use fill="currentColor" id="gpPt14" stroke="none" xlink:href="#gpPt13"/>
	<filter filterUnits="objectBoundingBox" height="1" id="textbox" width="1" x="0" y="0">
	  <feFlood flood-color="#FFFFFF" flood-opacity="1" result="bgnd"/>
	  <feComposite in="SourceGraphic" in2="bgnd" operator="atop"/>
	</filter>
	<filter filterUnits="objectBoundingBox" height="1" id="greybox" width="1" x="0" y="0">
	  <feFlood flood-color="lightgrey" flood-opacity="1" result="grey"/>
	  <feComposite in="SourceGraphic" in2="grey" operator="atop"/>
	</filter>
</defs>
<g color="#FFFFFF" fill="none" stroke="currentColor" stroke-linecap="butt" stroke-linejoin="miter" stroke-width="1.00">
</g>
<g color="black" fill="none" stroke="currentColor" stroke-linecap="butt" stroke-linejoin="miter" stroke-width="1.00">
	<g shape-rendering="crispEdges" stroke="none">
		<polygon fill="rgb(255, 255, 255)" points="25.2,396.0 543.0,396.0 543.0,11.4 25.2,11.4 "/>
	</g>
</g>
<g color="black" fill="none" stroke="currentColor" stroke-linecap="butt" stroke-linejoin="miter" stroke-width="1.00">
	<path d="M25.2,396.0 L33.6,396.0 M543.1,396.0 L534.7,396.0  " stroke="rgb(  0,   0,   0)"/>	<g fill="rgb(38,38,38)" font-family="Arial" font-size="10.00" stroke="none" text-anchor="end" transform="translate(19.6,399.7)">
		<text><tspan font-family="Arial">0</tspan></text>
	</g>
</g>
<g color="black" fill="none" stroke="currentColor" stroke-linecap="butt" stroke-linejoin="miter" stroke-width="1.00">
	<path d="M25.2,347.9 L33.6,347.9 M543.1,347.9 L534.7,347.9  " stroke="rgb(  0,   0,   0)"/>	<g fill="rgb(38,38,38)" font-family="Arial" font-size="10.00" stroke="none" text-anchor="end" transform="translate(19.6,351.6)">
		<text><tspan font-family="Arial">5</tspan></text>
	</g>
</g>
<g color="black" fill="none" stroke="currentColor" stroke-linecap="butt" stroke-linejoin="miter" stroke-width="1.00">
	<path d="M25.2,299.8 L33.6,299.8 M543.1,299.8 L534.7,299.8  " stroke="rgb(  0,   0,   0)"/>	<g fill="rgb(38,38,38)" font-family="Arial" font-size="10.00" stroke="none" text-anchor="end" transform="translate(19.6,303.5)">
		<text><tspan font-family="Arial">10</tspan></text>
	</g>
</g>
<g color="black" fill="none" stroke="currentColor" stroke-linecap="butt" stroke-linejoin="miter" stroke-width="1.00">
	<path d="M25.2,251.7 L33.6,251.7 M543.1,251.7 L534.7,251.7  " stroke="rgb(  0,   0,   0)"/>	<g fill="rgb(38,38,38)" font-family="Arial" font-size="10.00" stroke="none" text-anchor="end" transform="translate(19.6,255.4)">
		<text><tspan font-family="Arial">15</tspan></text>
	</g>
</g>
<g color="black" fill="none" stroke="currentColor" stroke-linecap="butt" stroke-linejoin="miter" stroke-width="1.00">
	<path d="M25.2,203.6 L33.6,203.6 M543.1,203.6 L534.7,203.6  " stroke="rgb(  0,   0,   0)"/>	<g fill="rgb(38,38,38)" font-family="Arial" font-size="10.00" stroke="none" text-anchor="end" transform="translate(19.6,207.3)">
		<text><tspan font-family="Arial">20</tspan></text>
	</g>
</g>
<g color="black" fill="none" stroke="currentColor" stroke-linecap="butt" stroke-linejoin="miter" stroke-width="1.00">
	<path d="M25.2,155.6 L33.6,155.6 M543.1,155.6 L534.7,155.6  " stroke="rgb(  0,   0,   0)"/>	<g fill="rgb(38,38,38)" font-family="Arial" font-size="10.00" stroke="none" text-anchor="end" transform="translate(19.6,159.3)">
		<text><tspan font-family="Arial">25</tspan></text>
	</g>
</g>
<g color="black" fill="none" stroke="currentColor" stroke-linecap="butt" stroke-linejoin="miter" stroke-width="1.00">
	<path d="M25.2,107.5 L33.6,107.5 M543.1,107.5 L534.7,107.5  " stroke="rgb(  0,   0,   0)"/>	<g fill="rgb(38,38,38)" font-family="Arial" font-size="10.00" stroke="none" text-anchor="end" transform="translate(19.6,111.2)">
		<text><tspan font-family="Arial">30</tspan></text>
	</g>
</g>
<g color="black" fill="none" stroke="currentColor" stroke-linecap="butt" stroke-linejoin="miter" stroke-width="1.00">
	<path d="M25.2,59.4 L33.6,59.4 M543.1,59.4 L534.7,59.4  " stroke="rgb(  0,   0,   0)"/>	<g fill="rgb(38,38,38)" font-family="Arial" font-size="10.00" stroke="none" text-anchor="end" transform="translate(19.6,63.1)">
		<text><tspan font-family="Arial">35</tspan></text>
	</g>
</g>
<g color="black" fill="none" stroke="currentColor" stroke-linecap="butt" stroke-linejoin="miter" stroke-width="1.00">
	<path d="M25.2,11.3 L33.6,11.3 M543.1,11.3 L534.7,11.3  " stroke="rgb(  0,   0,   0)"/>	<g fill="rgb(38,38,38)" font-family="Arial" font-size="10.00" stroke="none" text-anchor="end" transform="translate(19.6,15.0)">
		<text><tspan font-family="Arial">40</tspan></text>
	</g>
</g>
<g color="black" fill="none" stroke="currentColor" stroke-linecap="butt" stroke-linejoin="miter" stroke-width="1.00">
	<path d="M25.2,396.0 L25.2,387.6 M25.2,11.3 L25.2,19.7  " stroke="rgb(  0,   0,   0)"/>	<g fill="rgb(38,38,38)" font-family="Arial" font-size="10.00" stroke="none" text-anchor="middle" transform="translate(25.2,411.7)">
		<text><tspan font-family="Arial">1</tspan></text>
	</g>
</g>
<g color="black" fill="none" stroke="currentColor" stroke-linecap="butt" stroke-linejoin="miter" stroke-width="1.00">
	<path d="M128.8,396.0 L128.8,387.6 M128.8,11.3 L128.8,19.7  " stroke="rgb(  0,   0,   0)"/>	<g fill="rgb(38,38,38)" font-family="Arial" font-size="10.00" stroke="none" text-anchor="middle" transform="translate(128.8,411.7)">
		<text><tspan font-family="Arial">2</tspan></text>
	</g>
</g>
<g color="black" fill="none" stroke="currentColor" stroke-linecap="butt" stroke-linejoin="miter" stroke-width="1.00">
	<path d="M232.4,396.0 L232.4,387.6 M232.4,11.3 L232.4,19.7  " stroke="rgb(  0,   0,   0)"/>	<g fill="rgb(38,38,38)" font-family="Arial" font-size="10.00" stroke="none" text-anchor="middle" transform="translate(232.4,411.7)">
		<text><tspan font-family="Arial">3</tspan></text>
	</g>
</g>
<g color="black" fill="none" stroke="currentColor" stroke-linecap="butt" stroke-linejoin="miter" stroke-width="1.00">
	<path d="M335.9,396.0 L335.9,387.6 M335.9,11.3 L335.9,19.7  " stroke="rgb(  0,   0,   0)"/>	<g fill="rgb(38,38,38)" font-family="Arial" font-size="10.00" stroke="none" text-anchor="middle" transform="translate(335.9,411.7)">
		<text><tspan font-family="Arial">4</tspan></text>
	</g>
</g>
<g color="black" fill="none" stroke="currentColor" stroke-linecap="butt" stroke-linejoin="miter" stroke-width="1.00">
	<path d="M439.5,396.0 L439.5,387.6 M439.5,11.3 L439.5,19.7  " stroke="rgb(  0,   0,   0)"/>	<g fill="rgb(38,38,38)" font-family="Arial" font-size="10.00" stroke="none" text-anchor="middle" transform="translate(439.5,411.7)">
		<text><tspan font-family="Arial">5</tspan></text>
	</g>
</g>
<g color="black" fill="none" stroke="currentColor" stroke-linecap="butt" stroke-linejoin="miter" stroke-width="1.00">
	<path d="M543.1,396.0 L543.1,387.6 M543.1,11.3 L543.1,19.7  " stroke="rgb(  0,   0,   0)"/>	<g fill="rgb(38,38,38)" font-family="Arial" font-size="10.00" stroke="none" text-anchor="middle" transform="translate(543.1,411.7)">
		<text><tspan font-family="Arial">6</tspan></text>
	</g>
</g>
<g color="black" fill="none" stroke="currentColor" stroke-linecap="butt" stroke-linejoin="miter" stroke-width="1.00">
</g>
<g color="black" fill="none" stroke="currentColor" stroke-linecap="butt" stroke-linejoin="miter" stroke-width="1.00">
</g>
	<g id="gnuplot_plot_1a"><title>gnuplot_plot_1a</title>
<g color="#FFFFFF" fill="none" stroke="rgb(  0,   0,   0)" stroke-linecap="butt" stroke-linejoin="miter" stroke-width="0.50">
</g>
<g color="black" fill="none" stroke="currentColor" stroke-linecap="butt" stroke-linejoin="miter" stroke-width="0.50">
	<path d="M25.2,59.4 L128.8,367.1 L232.4,97.9 L335.9,319.1 L439.5,107.5 L543.1,357.5  " stroke="rgb(  0, 114, 189)"/></g>
	</g>
	<g id="gnuplot_plot_2a"><title>gnuplot_plot_2a</title>
<g color="black" fill="none" stroke="currentColor" stroke-linecap="butt" stroke-linejoin="miter" stroke-width="0.50">
	<path d="M25.2,386.4 L128.8,88.2 L232.4,309.4 L335.9,126.7 L439.5,347.9 L543.1,49.8  " stroke="rgb(217,  83,  25)"/></g>
	</g>
	<g id="gnuplot_plot_3a"><title>gnuplot_plot_3a</title>
<g color="black" fill="none" stroke="currentColor" stroke-linecap="butt" stroke-linejoin="miter" stroke-width="0.50">
	<path d="M25.2,338.3 L128.8,328.7 L232.4,376.8 L335.9,78.6 L439.5,69.0 L543.1,117.1  " stroke="rgb(237, 177,  32)"/></g>
	</g>
	<g id="gnuplot_plot_4a"><title>gnuplot_plot_4a</title>
<g color="black" fill="none" stroke="currentColor" stroke-linecap="butt" stroke-linejoin="miter" stroke-width="0.50">
	<path d="M25.2,145.9 L128.8,194.0 L232.4,184.4 L335.9,232.5 L439.5,280.6 L543.1,271.0  " stroke="rgb(126,  47, 142)"/></g>
	</g>
	<g id="gnuplot_plot_5a"><title>gnuplot_plot_5a</title>
<g color="black" fill="none" stroke="currentColor" stroke-linecap="butt" stroke-linejoin="miter" stroke-width="0.50">
	<path d="M25.2,213.3 L128.8,174.8 L232.4,136.3 L335.9,299.8 L439.5,261.4 L543.1,222.9  " stroke="rgb(119, 172,  48)"/></g>
	</g>
	<g id="gnuplot_plot_6a"><title>gnuplot_plot_6a</title>
<g color="black" fill="none" stroke="currentColor" stroke-linecap="butt" stroke-linejoin="miter" stroke-width="0.50">
	<path d="M25.2,165.2 L128.8,155.6 L232.4,203.6 L335.9,251.7 L439.5,242.1 L543.1,290.2  " stroke="rgb( 77, 190, 238)"/></g>
	</g>
<g color="#FFFFFF" fill="none" stroke="rgb( 77, 190, 238)" stroke-linecap="butt" stroke-linejoin="miter" stroke-width="2.00">
</g>
<g color="black" fill="none" stroke="currentColor" stroke-linecap="butt" stroke-linejoin="miter" stroke-width="2.00">
</g>
<g color="black" fill="none" stroke="black" stroke-linecap="butt" stroke-linejoin="miter" stroke-width="0.50">
</g>
<g color="black" fill="none" stroke="currentColor" stroke-linecap="butt" stroke-linejoin="miter" stroke-width="0.50">
	<path d="M25.2,396.0 L543.1,396.0  " stroke="rgb( 38,  38,  38)"/></g>
<g color="black" fill="none" stroke="currentColor" stroke-linecap="butt" stroke-linejoin="miter" stroke-width="0.50">
	<path d="M25.2,11.3 L543.1,11.3  " stroke="rgb( 38,  38,  38)"/></g>
<g color="black" fill="none" stroke="currentColor" stroke-linecap="butt" stroke-linejoin="miter" stroke-width="0.50">
	<path d="M25.2,396.0 L25.2,11.3  " stroke="rgb( 38,  38,  38)"/></g>
<g color="black" fill="none" stroke="currentColor" stroke-linecap="butt" stroke-linejoin="miter" stroke-width="0.50">
	<path d="M543.1,396.0 L543.1,11.3  " stroke="rgb( 38,  38,  38)"/></g>
<g color="black" fill="none" stroke="rgb( 38,  38,  38)" stroke-linecap="butt" stroke-linejoin="miter" stroke-width="1.00">
</g>
<g color="black" fill="none" stroke="currentColor" stroke-linecap="butt" stroke-linejoin="miter" stroke-width="1.00">
</g>
</g>
</svg>